<svg width="1405" height="210" viewBox="0 0 1405 210" fill="none" xmlns="http://www.w3.org/2000/svg">
<g filter="url(#filter0_b_1406_667)">
<path d="M78.432 209.28C65.816 209.28 55.176 206.886 46.512 202.098C37.924 197.31 31.008 190.964 25.764 183.06C20.52 175.08 16.72 166.264 14.364 156.612C12.084 146.884 10.944 137.08 10.944 127.2C10.944 118.156 12.122 108.808 14.478 99.156C16.834 89.504 20.634 80.574 25.878 72.366C31.198 64.082 38.152 57.394 46.74 52.302C55.404 47.21 65.968 44.664 78.432 44.664C88.692 44.664 97.736 46.564 105.564 50.364C113.468 54.088 120.08 58.952 125.4 64.956C130.796 70.96 134.824 77.268 137.484 83.88L105.336 98.244C102.676 94.216 100.054 90.796 97.47 87.984C94.886 85.172 92.074 83.044 89.034 81.6C85.994 80.08 82.46 79.32 78.432 79.32C72.732 79.32 67.944 80.802 64.068 83.766C60.192 86.654 57.114 90.492 54.834 95.28C52.554 100.068 50.882 105.274 49.818 110.898C48.83 116.446 48.336 121.88 48.336 127.2C48.336 132.672 48.906 138.22 50.046 143.844C51.186 149.392 52.972 154.484 55.404 159.12C57.836 163.756 60.952 167.518 64.752 170.406C68.552 173.218 73.112 174.624 78.432 174.624C83.904 174.624 88.768 172.724 93.024 168.924C97.28 165.048 101.232 160.108 104.88 154.104L137.712 166.416C133.836 174.776 129.162 182.186 123.69 188.646C118.218 195.106 111.758 200.16 104.31 203.808C96.862 207.456 88.236 209.28 78.432 209.28ZM145.48 207L209.092 47.4H243.52L307.36 207H267.916L256.06 176.676H196.552L184.924 207H145.48ZM208.636 143.388H243.748L230.752 111.468C230.296 110.404 229.764 109.226 229.156 107.934C228.624 106.566 228.092 105.198 227.56 103.83C227.028 102.386 226.572 101.056 226.192 99.84C225.812 101.056 225.356 102.386 224.824 103.83C224.292 105.198 223.722 106.566 223.114 107.934C222.582 109.226 222.088 110.404 221.632 111.468L208.636 143.388ZM340.101 207V82.056H294.273V47.4H422.181V82.056H376.125V207H340.101ZM444.812 207V47.4H561.32V81.6H480.836V107.592H525.068V141.792H480.836V172.572H565.88V207H444.812ZM652.737 209.736C640.425 209.736 629.785 207.456 620.817 202.896C611.925 198.26 604.629 192.028 598.929 184.2C593.229 176.296 588.973 167.442 586.161 157.638C583.425 147.758 582.057 137.612 582.057 127.2C582.057 117.548 583.463 107.896 586.275 98.244C589.087 88.516 593.381 79.624 599.157 71.568C604.933 63.436 612.267 56.938 621.159 52.074C630.051 47.134 640.577 44.664 652.737 44.664C663.149 44.664 672.041 46.45 679.413 50.022C686.785 53.594 693.055 58.23 698.223 63.93C703.467 69.554 708.065 75.52 712.017 81.828L680.553 99.612C677.133 94.14 673.143 89.352 668.583 85.248C664.099 81.144 658.817 79.092 652.737 79.092C646.353 79.092 640.995 80.612 636.663 83.652C632.407 86.616 629.025 90.492 626.517 95.28C624.009 100.068 622.185 105.274 621.045 110.898C619.981 116.522 619.449 121.956 619.449 127.2C619.449 133.204 620.057 139.094 621.273 144.87C622.489 150.57 624.389 155.738 626.973 160.374C629.633 164.934 633.091 168.582 637.347 171.318C641.603 173.978 646.733 175.308 652.737 175.308C656.765 175.308 660.527 174.396 664.023 172.572C667.595 170.672 670.483 168.24 672.687 165.276C674.891 162.236 675.993 158.968 675.993 155.472V154.788H650.229V120.36H712.929V145.896C712.929 159.652 710.269 171.28 704.949 180.78C699.629 190.28 692.409 197.5 683.289 202.44C674.245 207.304 664.061 209.736 652.737 209.736ZM807.266 209.736C794.422 209.736 783.478 207.342 774.434 202.554C765.39 197.69 758.056 191.268 752.432 183.288C746.884 175.232 742.818 166.34 740.234 156.612C737.65 146.884 736.358 137.08 736.358 127.2C736.358 117.32 737.65 107.516 740.234 97.788C742.818 88.06 746.884 79.206 752.432 71.226C758.056 63.17 765.39 56.748 774.434 51.96C783.478 47.096 794.422 44.664 807.266 44.664C820.186 44.664 831.13 47.096 840.098 51.96C849.066 56.748 856.324 63.17 861.872 71.226C867.496 79.206 871.562 88.06 874.07 97.788C876.654 107.516 877.946 117.32 877.946 127.2C877.946 137.08 876.654 146.884 874.07 156.612C871.562 166.34 867.496 175.232 861.872 183.288C856.324 191.268 849.066 197.69 840.098 202.554C831.13 207.342 820.186 209.736 807.266 209.736ZM807.266 174.852C813.346 174.852 818.514 173.37 822.77 170.406C827.026 167.442 830.446 163.566 833.03 158.778C835.69 153.99 837.59 148.822 838.73 143.274C839.946 137.726 840.554 132.368 840.554 127.2C840.554 121.728 839.984 116.18 838.844 110.556C837.78 104.932 835.956 99.764 833.372 95.052C830.864 90.34 827.444 86.54 823.112 83.652C818.856 80.764 813.574 79.32 807.266 79.32C800.882 79.32 795.524 80.84 791.192 83.88C786.936 86.844 783.516 90.72 780.932 95.508C778.348 100.296 776.486 105.502 775.346 111.126C774.282 116.674 773.75 122.032 773.75 127.2C773.75 132.52 774.32 137.992 775.46 143.616C776.6 149.164 778.462 154.332 781.046 159.12C783.706 163.832 787.164 167.632 791.42 170.52C795.752 173.408 801.034 174.852 807.266 174.852ZM904.82 207V47.4H983.936C997.54 47.4 1008.33 49.794 1016.31 54.582C1024.29 59.294 1029.99 65.602 1033.41 73.506C1036.91 81.41 1038.66 90.036 1038.66 99.384C1038.66 105.236 1037.55 111.278 1035.35 117.51C1033.15 123.666 1029.92 129.328 1025.66 134.496C1021.48 139.588 1016.39 143.464 1010.38 146.124L1040.02 207H999.668L971.168 151.824H940.844V207H904.82ZM940.844 117.852H984.392C988.648 117.852 991.992 117.016 994.424 115.344C996.932 113.596 998.68 111.316 999.668 108.504C1000.73 105.692 1001.26 102.652 1001.26 99.384C1001.26 96.344 1000.77 93.456 999.782 90.72C998.794 87.984 997.046 85.742 994.538 83.994C992.106 82.246 988.724 81.372 984.392 81.372H940.844V117.852ZM1065.8 207V47.4H1101.82V207H1065.8ZM1134.82 207V47.4H1251.33V81.6H1170.85V107.592H1215.08V141.792H1170.85V172.572H1255.89V207H1134.82ZM1334.29 209.736C1323.88 209.736 1314.38 207.836 1305.79 204.036C1297.28 200.236 1289.91 194.802 1283.68 187.734C1277.52 180.59 1272.81 172.04 1269.54 162.084L1301.69 150C1305.26 157.524 1309.97 163.718 1315.82 168.582C1321.68 173.37 1328.14 175.764 1335.2 175.764C1342.27 175.764 1347.93 174.472 1352.19 171.888C1356.52 169.228 1358.69 165.352 1358.69 160.26C1358.69 156.916 1357.43 154.142 1354.93 151.938C1352.49 149.734 1349.04 147.796 1344.55 146.124C1340.14 144.376 1334.98 142.552 1329.05 140.652C1323.04 138.676 1316.93 136.51 1310.69 134.154C1304.46 131.798 1298.72 128.834 1293.48 125.262C1288.31 121.614 1284.13 116.978 1280.94 111.354C1277.75 105.73 1276.15 98.7 1276.15 90.264C1276.15 81.98 1278.36 74.38 1282.76 67.464C1287.17 60.548 1293.56 55.038 1301.92 50.934C1310.35 46.754 1320.54 44.664 1332.47 44.664C1342.35 44.664 1351.13 46.488 1358.8 50.136C1366.48 53.708 1372.82 58.572 1377.84 64.728C1382.93 70.884 1386.5 77.8 1388.56 85.476L1356.64 95.964C1354.36 91.024 1351.24 86.92 1347.29 83.652C1343.41 80.308 1337.86 78.636 1330.64 78.636C1324.64 78.636 1320 79.7 1316.74 81.828C1313.54 83.88 1311.95 86.92 1311.95 90.948C1311.95 93.38 1313.05 95.508 1315.25 97.332C1317.46 99.08 1320.54 100.714 1324.49 102.234C1328.44 103.754 1333.08 105.388 1338.4 107.136C1345.16 109.34 1351.85 111.772 1358.46 114.432C1365.15 117.092 1371.19 120.36 1376.59 124.236C1382.06 128.112 1386.39 132.976 1389.58 138.828C1392.85 144.68 1394.48 151.9 1394.48 160.488C1394.48 170.9 1391.79 179.792 1386.39 187.164C1381.07 194.46 1373.85 200.046 1364.73 203.922C1355.69 207.798 1345.54 209.736 1334.29 209.736Z" fill="#BFD3D8"/>
<path d="M46.512 202.098L46.025 202.971L46.0283 202.973L46.512 202.098ZM25.764 183.06L24.9283 183.609L24.9307 183.613L25.764 183.06ZM14.364 156.612L13.3903 156.84L13.3925 156.849L14.364 156.612ZM14.478 99.156L15.4495 99.3931L15.4495 99.3931L14.478 99.156ZM25.878 72.366L25.0366 71.8256L25.0353 71.8276L25.878 72.366ZM46.74 52.302L46.2333 51.4399L46.23 51.4418L46.74 52.302ZM105.564 50.364L105.127 51.2637L105.138 51.2686L105.564 50.364ZM125.4 64.956L124.652 65.6192L124.656 65.6244L125.4 64.956ZM137.484 83.88L137.892 84.793L138.771 84.4002L138.412 83.5068L137.484 83.88ZM105.336 98.244L104.502 98.7951L104.969 99.5032L105.744 99.157L105.336 98.244ZM97.47 87.984L96.7337 88.6606L96.7337 88.6606L97.47 87.984ZM89.034 81.6L88.5868 82.4944L88.5958 82.4989L88.6049 82.5033L89.034 81.6ZM64.068 83.766L64.6655 84.5679L64.6755 84.5603L64.068 83.766ZM54.834 95.28L55.7369 95.7099L55.7369 95.7099L54.834 95.28ZM49.818 110.898L48.8354 110.712L48.8335 110.723L49.818 110.898ZM50.046 143.844L49.0659 144.043L49.0665 144.045L50.046 143.844ZM55.404 159.12L56.2896 158.655L56.2896 158.655L55.404 159.12ZM64.752 170.406L64.1469 171.202L64.1572 171.21L64.752 170.406ZM93.024 168.924L93.6901 169.67L93.6973 169.663L93.024 168.924ZM104.88 154.104L105.231 153.168L104.456 152.877L104.025 153.585L104.88 154.104ZM137.712 166.416L138.619 166.837L139.073 165.858L138.063 165.48L137.712 166.416ZM123.69 188.646L122.927 188L122.927 188L123.69 188.646ZM104.31 203.808L104.75 204.706L104.31 203.808ZM78.432 208.28C65.9398 208.28 55.4764 205.909 46.9957 201.223L46.0283 202.973C54.8756 207.863 65.6922 210.28 78.432 210.28V208.28ZM46.999 201.225C38.545 196.511 31.7498 190.273 26.5973 182.507L24.9307 183.613C30.2662 191.655 37.303 198.109 46.025 202.971L46.999 201.225ZM26.5997 182.511C21.421 174.63 17.6655 165.92 15.3355 156.375L13.3925 156.849C15.7745 166.608 19.619 175.53 24.9283 183.609L26.5997 182.511ZM15.3376 156.384C13.0749 146.73 11.944 137.002 11.944 127.2H9.944C9.944 137.158 11.0931 147.038 13.3904 156.84L15.3376 156.384ZM11.944 127.2C11.944 118.243 13.1106 108.975 15.4495 99.3931L13.5065 98.9189C11.1334 108.641 9.944 118.069 9.944 127.2H11.944ZM15.4495 99.3931C17.7799 89.8458 21.5371 81.0179 26.7207 72.9044L25.0353 71.8276C19.7309 80.1301 15.8881 89.1622 13.5065 98.9189L15.4495 99.3931ZM26.7194 72.9064C31.9541 64.7552 38.7939 58.176 47.25 53.1622L46.23 51.4418C37.5101 56.612 30.4419 63.4088 25.0366 71.8256L26.7194 72.9064ZM47.2467 53.1641C55.7242 48.1817 66.1037 45.664 78.432 45.664V43.664C65.8323 43.664 55.0838 46.2383 46.2333 51.4399L47.2467 53.1641ZM78.432 45.664C88.5676 45.664 97.4577 47.5405 105.127 51.2636L106.001 49.4644C98.0143 45.5875 88.8164 43.664 78.432 43.664V45.664ZM105.138 51.2686C112.93 54.94 119.429 59.7254 124.652 65.6192L126.148 64.2928C120.731 58.1786 114.006 53.236 105.99 49.4594L105.138 51.2686ZM124.656 65.6244C129.984 71.5529 133.945 77.763 136.556 84.2532L138.412 83.5068C135.703 76.773 131.608 70.367 126.144 64.2875L124.656 65.6244ZM137.076 82.967L104.928 97.331L105.744 99.157L137.892 84.793L137.076 82.967ZM106.17 97.6929C103.488 93.6315 100.834 90.1672 98.2063 87.3074L96.7337 88.6606C99.2737 91.4248 101.864 94.8004 104.502 98.7951L106.17 97.6929ZM98.2063 87.3074C95.5471 84.4134 92.6337 82.2028 89.4631 80.6967L88.6049 82.5033C91.5143 83.8852 94.225 85.9305 96.7337 88.6606L98.2063 87.3074ZM89.4812 80.7056C86.2789 79.1044 82.5867 78.32 78.432 78.32V80.32C82.3333 80.32 85.7091 81.0556 88.5868 82.4944L89.4812 80.7056ZM78.432 78.32C72.5508 78.32 67.5392 79.8527 63.4606 82.9716L64.6755 84.5603C68.3488 81.7513 72.9132 80.32 78.432 80.32V78.32ZM63.4705 82.9641C59.4516 85.9586 56.2742 89.9296 53.9311 94.8501L55.7369 95.7099C57.9538 91.0543 60.9324 87.3494 64.6655 84.5679L63.4705 82.9641ZM53.9311 94.8501C51.6114 99.7215 49.9141 105.01 48.8354 110.712L50.8006 111.084C51.8499 105.538 53.4966 100.414 55.7369 95.7099L53.9311 94.8501ZM48.8335 110.723C47.8358 116.325 47.336 121.818 47.336 127.2H49.336C49.336 121.942 49.8242 116.567 50.8025 111.073L48.8335 110.723ZM47.336 127.2C47.336 132.742 47.9133 138.356 49.0659 144.043L51.0261 143.645C49.8987 138.084 49.336 132.602 49.336 127.2H47.336ZM49.0665 144.045C50.2238 149.678 52.0395 154.859 54.5185 159.585L56.2896 158.655C53.9045 154.109 52.1482 149.106 51.0255 143.643L49.0665 144.045ZM54.5185 159.585C57.0118 164.338 60.2193 168.217 64.1469 171.202L65.3571 169.61C61.6847 166.819 58.6602 163.174 56.2896 158.655L54.5185 159.585ZM64.1572 171.21C68.1506 174.165 72.9259 175.624 78.432 175.624V173.624C73.2981 173.624 68.9534 172.271 65.3468 169.602L64.1572 171.21ZM78.432 175.624C84.1609 175.624 89.2593 173.626 93.69 169.67L92.358 168.178C88.2767 171.822 83.6471 173.624 78.432 173.624V175.624ZM93.6973 169.663C98.0375 165.711 102.048 160.692 105.735 154.623L104.025 153.585C100.416 159.524 96.5225 164.385 92.3507 168.185L93.6973 169.663ZM104.529 155.04L137.361 167.352L138.063 165.48L105.231 153.168L104.529 155.04ZM136.805 165.995C132.963 174.281 128.336 181.614 122.927 188L124.453 189.292C129.988 182.758 134.709 175.271 138.619 166.837L136.805 165.995ZM122.927 188C117.542 194.357 111.192 199.324 103.87 202.91L104.75 204.706C112.324 200.996 118.894 195.855 124.453 189.292L122.927 188ZM103.87 202.91C96.5818 206.48 88.1111 208.28 78.432 208.28V210.28C88.3609 210.28 97.1422 208.432 104.75 204.706L103.87 202.91ZM145.48 207L144.551 206.63L144.005 208H145.48V207ZM209.092 47.4V46.4H208.414L208.163 47.0297L209.092 47.4ZM243.52 47.4L244.449 47.0286L244.197 46.4H243.52V47.4ZM307.36 207V208H308.837L308.289 206.629L307.36 207ZM267.916 207L266.985 207.364L267.233 208H267.916V207ZM256.06 176.676L256.991 176.312L256.743 175.676H256.06V176.676ZM196.552 176.676V175.676H195.864L195.618 176.318L196.552 176.676ZM184.924 207V208H185.612L185.858 207.358L184.924 207ZM208.636 143.388L207.71 143.011L207.149 144.388H208.636V143.388ZM243.748 143.388V144.388H245.235L244.674 143.011L243.748 143.388ZM230.752 111.468L231.678 111.091L231.675 111.082L231.671 111.074L230.752 111.468ZM229.156 107.934L228.224 108.296L228.237 108.329L228.251 108.36L229.156 107.934ZM227.56 103.83L226.622 104.176L226.625 104.184L226.628 104.192L227.56 103.83ZM226.192 99.84L227.147 99.5417L226.192 96.4874L225.238 99.5417L226.192 99.84ZM224.824 103.83L225.756 104.192L225.759 104.184L225.762 104.176L224.824 103.83ZM223.114 107.934L222.2 107.528L222.195 107.54L222.189 107.553L223.114 107.934ZM221.632 111.468L220.713 111.074L220.709 111.082L220.706 111.091L221.632 111.468ZM146.409 207.37L210.021 47.7702L208.163 47.0297L144.551 206.63L146.409 207.37ZM209.092 48.4H243.52V46.4H209.092V48.4ZM242.592 47.7714L306.432 207.371L308.289 206.629L244.449 47.0286L242.592 47.7714ZM307.36 206H267.916V208H307.36V206ZM268.847 206.636L256.991 176.312L255.129 177.04L266.985 207.364L268.847 206.636ZM256.06 175.676H196.552V177.676H256.06V175.676ZM195.618 176.318L183.99 206.642L185.858 207.358L197.486 177.034L195.618 176.318ZM184.924 206H145.48V208H184.924V206ZM208.636 144.388H243.748V142.388H208.636V144.388ZM244.674 143.011L231.678 111.091L229.826 111.845L242.822 143.765L244.674 143.011ZM231.671 111.074C231.21 109.997 230.673 108.808 230.061 107.508L228.251 108.36C228.855 109.644 229.382 110.811 229.833 111.862L231.671 111.074ZM230.088 107.572C229.556 106.204 229.024 104.836 228.492 103.468L226.628 104.192C227.16 105.56 227.692 106.928 228.224 108.296L230.088 107.572ZM228.498 103.484C227.971 102.053 227.521 100.739 227.147 99.5417L225.238 100.138C225.623 101.373 226.085 102.719 226.622 104.176L228.498 103.484ZM225.238 99.5417C224.863 100.739 224.413 102.053 223.886 103.484L225.762 104.176C226.299 102.719 226.761 101.373 227.147 100.138L225.238 99.5417ZM223.892 103.468C223.366 104.821 222.802 106.174 222.2 107.528L224.028 108.34C224.642 106.958 225.218 105.575 225.756 104.192L223.892 103.468ZM222.189 107.553C221.659 108.842 221.167 110.015 220.713 111.074L222.551 111.862C223.009 110.793 223.505 109.61 224.039 108.315L222.189 107.553ZM220.706 111.091L207.71 143.011L209.562 143.765L222.558 111.845L220.706 111.091ZM340.101 207H339.101V208H340.101V207ZM340.101 82.056H341.101V81.056H340.101V82.056ZM294.273 82.056H293.273V83.056H294.273V82.056ZM294.273 47.4V46.4H293.273V47.4H294.273ZM422.181 47.4H423.181V46.4H422.181V47.4ZM422.181 82.056V83.056H423.181V82.056H422.181ZM376.125 82.056V81.056H375.125V82.056H376.125ZM376.125 207V208H377.125V207H376.125ZM341.101 207V82.056H339.101V207H341.101ZM340.101 81.056H294.273V83.056H340.101V81.056ZM295.273 82.056V47.4H293.273V82.056H295.273ZM294.273 48.4H422.181V46.4H294.273V48.4ZM421.181 47.4V82.056H423.181V47.4H421.181ZM422.181 81.056H376.125V83.056H422.181V81.056ZM375.125 82.056V207H377.125V82.056H375.125ZM376.125 206H340.101V208H376.125V206ZM444.812 207H443.812V208H444.812V207ZM444.812 47.4V46.4H443.812V47.4H444.812ZM561.32 47.4H562.32V46.4H561.32V47.4ZM561.32 81.6V82.6H562.32V81.6H561.32ZM480.836 81.6V80.6H479.836V81.6H480.836ZM480.836 107.592H479.836V108.592H480.836V107.592ZM525.068 107.592H526.068V106.592H525.068V107.592ZM525.068 141.792V142.792H526.068V141.792H525.068ZM480.836 141.792V140.792H479.836V141.792H480.836ZM480.836 172.572H479.836V173.572H480.836V172.572ZM565.88 172.572H566.88V171.572H565.88V172.572ZM565.88 207V208H566.88V207H565.88ZM445.812 207V47.4H443.812V207H445.812ZM444.812 48.4H561.32V46.4H444.812V48.4ZM560.32 47.4V81.6H562.32V47.4H560.32ZM561.32 80.6H480.836V82.6H561.32V80.6ZM479.836 81.6V107.592H481.836V81.6H479.836ZM480.836 108.592H525.068V106.592H480.836V108.592ZM524.068 107.592V141.792H526.068V107.592H524.068ZM525.068 140.792H480.836V142.792H525.068V140.792ZM479.836 141.792V172.572H481.836V141.792H479.836ZM480.836 173.572H565.88V171.572H480.836V173.572ZM564.88 172.572V207H566.88V172.572H564.88ZM565.88 206H444.812V208H565.88V206ZM620.817 202.896L620.355 203.783L620.364 203.787L620.817 202.896ZM598.929 184.2L598.118 184.785L598.121 184.789L598.929 184.2ZM586.161 157.638L585.198 157.905L585.2 157.914L586.161 157.638ZM586.275 98.244L587.235 98.5237L587.236 98.5217L586.275 98.244ZM599.157 71.568L599.97 72.1507L599.973 72.1471L599.157 71.568ZM621.159 52.074L621.639 52.9513L621.645 52.9481L621.159 52.074ZM679.413 50.022L679.849 49.1221L679.849 49.1221L679.413 50.022ZM698.223 63.93L697.482 64.6017L697.492 64.612L698.223 63.93ZM712.017 81.828L712.509 82.6986L713.42 82.1837L712.865 81.2971L712.017 81.828ZM680.553 99.612L679.705 100.142L680.212 100.953L681.045 100.483L680.553 99.612ZM668.583 85.248L667.908 85.9857L667.914 85.9913L668.583 85.248ZM636.663 83.652L637.235 84.4726L637.238 84.4706L636.663 83.652ZM626.517 95.28L627.403 95.744L627.403 95.744L626.517 95.28ZM621.045 110.898L620.065 110.699L620.063 110.712L621.045 110.898ZM621.273 144.87L620.295 145.076L620.295 145.079L621.273 144.87ZM626.973 160.374L626.1 160.861L626.105 160.869L626.11 160.878L626.973 160.374ZM637.347 171.318L636.806 172.159L636.817 172.166L637.347 171.318ZM664.023 172.572L664.486 173.459L664.493 173.455L664.023 172.572ZM672.687 165.276L673.49 165.873L673.497 165.863L672.687 165.276ZM675.993 154.788H676.993V153.788H675.993V154.788ZM650.229 154.788H649.229V155.788H650.229V154.788ZM650.229 120.36V119.36H649.229V120.36H650.229ZM712.929 120.36H713.929V119.36H712.929V120.36ZM704.949 180.78L704.077 180.291L704.077 180.291L704.949 180.78ZM683.289 202.44L683.763 203.321L683.766 203.319L683.289 202.44ZM652.737 208.736C640.548 208.736 630.07 206.479 621.271 202.005L620.364 203.787C629.5 208.433 640.302 210.736 652.737 210.736V208.736ZM621.28 202.009C612.519 197.442 605.344 191.31 599.738 183.611L598.121 184.789C603.915 192.746 611.331 199.078 620.355 203.783L621.28 202.009ZM599.74 183.615C594.111 175.809 589.904 167.061 587.123 157.362L585.2 157.914C588.042 167.823 592.348 176.783 598.118 184.785L599.74 183.615ZM587.125 157.371C584.413 147.579 583.057 137.523 583.057 127.2H581.057C581.057 137.701 582.437 147.937 585.198 157.905L587.125 157.371ZM583.057 127.2C583.057 117.647 584.449 108.089 587.235 98.5237L585.315 97.9643C582.478 107.703 581.057 117.449 581.057 127.2H583.057ZM587.236 98.5217C590.017 88.9006 594.262 80.1122 599.97 72.1507L598.345 70.9853C592.501 79.1358 588.158 88.1314 585.315 97.9663L587.236 98.5217ZM599.973 72.1471C605.659 64.1407 612.878 57.7438 621.639 52.9513L620.679 51.1967C611.657 56.1322 604.207 62.7313 598.342 70.9889L599.973 72.1471ZM621.645 52.9481C630.362 48.1054 640.714 45.664 652.737 45.664V43.664C640.441 43.664 629.741 46.1626 620.674 51.1998L621.645 52.9481ZM652.737 45.664C663.038 45.664 671.773 47.4311 678.977 50.9219L679.849 49.1221C672.31 45.4689 663.261 43.664 652.737 43.664V45.664ZM678.977 50.9219C686.242 54.4417 692.406 59.0026 697.482 64.6017L698.964 63.2583C693.705 57.4574 687.329 52.7463 679.849 49.1221L678.977 50.9219ZM697.492 64.612C702.694 70.1909 707.253 76.1066 711.17 82.3589L712.865 81.2971C708.878 74.9334 704.241 68.917 698.955 63.248L697.492 64.612ZM711.525 80.9574L680.061 98.7414L681.045 100.483L712.509 82.6986L711.525 80.9574ZM681.401 99.082C677.934 93.535 673.885 88.6743 669.252 84.5047L667.914 85.9913C672.401 90.0297 676.332 94.745 679.705 100.142L681.401 99.082ZM669.258 84.5103C664.59 80.2375 659.067 78.092 652.737 78.092V80.092C658.567 80.092 663.609 82.0504 667.908 85.9857L669.258 84.5103ZM652.737 78.092C646.191 78.092 640.621 79.6527 636.089 82.8334L637.238 84.4706C641.369 81.5712 646.516 80.092 652.737 80.092V78.092ZM636.092 82.8314C631.698 85.8912 628.211 89.8918 625.631 94.816L627.403 95.744C629.84 91.0922 633.116 87.3408 637.235 84.4726L636.092 82.8314ZM625.631 94.816C623.077 99.6925 621.223 104.989 620.065 110.699L622.025 111.097C623.148 105.559 624.942 100.443 627.403 95.744L625.631 94.816ZM620.063 110.712C618.988 116.392 618.449 121.888 618.449 127.2H620.449C620.449 122.024 620.974 116.652 622.028 111.084L620.063 110.712ZM618.449 127.2C618.449 133.272 619.064 139.231 620.295 145.076L622.252 144.664C621.05 138.957 620.449 133.136 620.449 127.2H618.449ZM620.295 145.079C621.53 150.867 623.463 156.13 626.1 160.861L627.847 159.887C625.316 155.346 623.449 150.273 622.251 144.661L620.295 145.079ZM626.11 160.878C628.845 165.568 632.412 169.334 636.807 172.159L637.888 170.477C633.771 167.83 630.421 164.3 627.837 159.87L626.11 160.878ZM636.817 172.166C641.261 174.943 646.583 176.308 652.737 176.308V174.308C646.884 174.308 641.946 173.013 637.877 170.47L636.817 172.166ZM652.737 176.308C656.923 176.308 660.844 175.359 664.486 173.459L663.561 171.685C660.211 173.433 656.608 174.308 652.737 174.308V176.308ZM664.493 173.455C668.183 171.492 671.189 168.967 673.49 165.873L671.885 164.679C669.777 167.513 667.008 169.852 663.554 171.689L664.493 173.455ZM673.497 165.863C675.815 162.666 676.993 159.195 676.993 155.472H674.993C674.993 158.741 673.968 161.806 671.878 164.689L673.497 165.863ZM676.993 155.472V154.788H674.993V155.472H676.993ZM675.993 153.788H650.229V155.788H675.993V153.788ZM651.229 154.788V120.36H649.229V154.788H651.229ZM650.229 121.36H712.929V119.36H650.229V121.36ZM711.929 120.36V145.896H713.929V120.36H711.929ZM711.929 145.896C711.929 159.525 709.294 170.975 704.077 180.291L705.822 181.269C711.245 171.585 713.929 159.779 713.929 145.896H711.929ZM704.077 180.291C698.844 189.635 691.758 196.715 682.813 201.561L683.766 203.319C693.06 198.285 700.414 190.925 705.822 181.269L704.077 180.291ZM682.816 201.559C673.932 206.337 663.913 208.736 652.737 208.736V210.736C664.209 210.736 674.559 208.271 683.763 203.321L682.816 201.559ZM774.434 202.554L773.96 203.435L773.966 203.438L774.434 202.554ZM752.432 183.288L751.608 183.855L751.615 183.864L752.432 183.288ZM740.234 156.612L741.201 156.355L741.201 156.355L740.234 156.612ZM740.234 97.788L741.201 98.0447L741.201 98.0447L740.234 97.788ZM752.432 71.226L751.612 70.6536L751.611 70.6552L752.432 71.226ZM774.434 51.96L774.902 52.8438L774.908 52.8407L774.434 51.96ZM840.098 51.96L839.621 52.839L839.627 52.8421L840.098 51.96ZM861.872 71.226L861.048 71.7932L861.055 71.8021L861.872 71.226ZM874.07 97.788L873.102 98.0376L873.104 98.0447L874.07 97.788ZM874.07 156.612L873.104 156.355L873.102 156.362L874.07 156.612ZM861.872 183.288L861.052 182.716L861.051 182.717L861.872 183.288ZM840.098 202.554L840.569 203.436L840.575 203.433L840.098 202.554ZM833.03 158.778L832.156 158.292L832.15 158.303L833.03 158.778ZM838.73 143.274L837.753 143.06L837.751 143.073L838.73 143.274ZM838.844 110.556L837.861 110.742L837.864 110.755L838.844 110.556ZM833.372 95.052L832.489 95.5219L832.495 95.5328L833.372 95.052ZM823.112 83.652L822.551 84.4795L822.557 84.484L823.112 83.652ZM791.192 83.88L791.764 84.7006L791.766 84.6986L791.192 83.88ZM780.932 95.508L780.052 95.0331L780.052 95.0331L780.932 95.508ZM775.346 111.126L774.366 110.927L774.364 110.938L775.346 111.126ZM775.46 143.616L774.48 143.815L774.481 143.817L775.46 143.616ZM781.046 159.12L780.166 159.595L780.171 159.603L780.175 159.612L781.046 159.12ZM791.42 170.52L790.859 171.348L790.865 171.352L791.42 170.52ZM807.266 208.736C794.544 208.736 783.77 206.365 774.902 201.67L773.966 203.438C783.187 208.319 794.3 210.736 807.266 210.736V208.736ZM774.908 201.673C765.993 196.879 758.779 190.558 753.249 182.712L751.615 183.864C757.333 191.978 764.787 198.501 773.96 203.435L774.908 201.673ZM753.256 182.721C747.775 174.762 743.756 165.976 741.201 156.355L739.268 156.869C741.88 166.704 745.993 175.702 751.608 183.855L753.256 182.721ZM741.201 156.355C738.638 146.709 737.358 136.992 737.358 127.2H735.358C735.358 137.168 736.662 147.059 739.268 156.869L741.201 156.355ZM737.358 127.2C737.358 117.408 738.638 107.691 741.201 98.0447L739.268 97.5313C736.662 107.341 735.358 117.232 735.358 127.2H737.358ZM741.201 98.0447C743.756 88.425 747.774 79.678 753.253 71.7968L751.611 70.6552C745.994 78.734 741.88 87.695 739.268 97.5313L741.201 98.0447ZM753.252 71.7984C758.781 63.8782 765.992 57.5606 774.902 52.8438L773.966 51.0762C764.788 55.9354 757.331 62.4618 751.612 70.6536L753.252 71.7984ZM774.908 52.8407C783.774 48.0723 794.547 45.664 807.266 45.664V43.664C794.297 43.664 783.182 46.1197 773.96 51.0793L774.908 52.8407ZM807.266 45.664C820.063 45.664 830.834 48.0728 839.621 52.839L840.575 51.081C831.427 46.1192 820.309 43.664 807.266 43.664V45.664ZM839.627 52.8421C848.46 57.5579 855.595 63.8741 861.048 71.7932L862.696 70.6588C857.053 62.4659 849.672 55.9381 840.569 51.0779L839.627 52.8421ZM861.055 71.8021C866.607 79.6804 870.623 88.4232 873.102 98.0376L875.038 97.5383C872.501 87.6968 868.385 78.7316 862.689 70.6499L861.055 71.8021ZM873.104 98.0447C875.666 107.691 876.946 117.408 876.946 127.2H878.946C878.946 117.232 877.642 107.341 875.037 97.5313L873.104 98.0447ZM876.946 127.2C876.946 136.992 875.666 146.709 873.104 156.355L875.037 156.869C877.642 147.059 878.946 137.168 878.946 127.2H876.946ZM873.102 156.362C870.623 165.977 866.606 174.76 861.052 182.716L862.692 183.86C868.386 175.704 872.501 166.703 875.038 156.862L873.102 156.362ZM861.051 182.717C855.597 190.563 848.459 196.882 839.621 201.675L840.575 203.433C849.673 198.498 857.052 191.973 862.693 183.859L861.051 182.717ZM839.627 201.672C830.838 206.364 820.065 208.736 807.266 208.736V210.736C820.307 210.736 831.422 208.32 840.569 203.436L839.627 201.672ZM807.266 175.852C813.514 175.852 818.89 174.326 823.342 171.227L822.199 169.585C818.138 172.414 813.178 173.852 807.266 173.852V175.852ZM823.342 171.227C827.732 168.169 831.255 164.172 833.91 159.253L832.15 158.303C829.637 162.96 826.32 166.715 822.199 169.585L823.342 171.227ZM833.904 159.264C836.615 154.384 838.55 149.119 839.71 143.475L837.751 143.073C836.63 148.525 834.765 153.596 832.156 158.292L833.904 159.264ZM839.707 143.488C840.937 137.877 841.554 132.447 841.554 127.2H839.554C839.554 132.289 838.955 137.575 837.753 143.06L839.707 143.488ZM841.554 127.2C841.554 121.658 840.977 116.044 839.824 110.357L837.864 110.755C838.991 116.316 839.554 121.798 839.554 127.2H841.554ZM839.827 110.37C838.744 104.65 836.887 99.3811 834.249 94.5712L832.495 95.5328C835.026 100.147 836.816 105.214 837.861 110.742L839.827 110.37ZM834.255 94.5821C831.671 89.728 828.14 85.8021 823.667 82.8199L822.557 84.484C826.748 87.2779 830.057 90.952 832.489 95.5218L834.255 94.5821ZM823.674 82.8245C819.218 79.8009 813.729 78.32 807.266 78.32V80.32C813.42 80.32 818.494 81.7271 822.551 84.4795L823.674 82.8245ZM807.266 78.32C800.72 78.32 795.15 79.8808 790.618 83.0614L791.766 84.6986C795.898 81.7992 801.044 80.32 807.266 80.32V78.32ZM790.621 83.0594C786.23 86.1173 782.707 90.1142 780.052 95.0331L781.812 95.9829C784.325 91.3258 787.642 87.5707 791.764 84.7006L790.621 83.0594ZM780.052 95.0331C777.419 99.9124 775.524 105.212 774.366 110.927L776.326 111.325C777.448 105.792 779.277 100.68 781.812 95.9829L780.052 95.0331ZM774.364 110.938C773.289 116.542 772.75 121.963 772.75 127.2H774.75C774.75 122.101 775.275 116.806 776.328 111.314L774.364 110.938ZM772.75 127.2C772.75 132.592 773.328 138.13 774.48 143.815L776.44 143.417C775.312 137.854 774.75 132.448 774.75 127.2H772.75ZM774.481 143.817C775.639 149.457 777.534 154.718 780.166 159.595L781.926 158.645C779.39 153.946 777.561 148.871 776.44 143.415L774.481 143.817ZM780.175 159.612C782.907 164.451 786.468 168.368 790.859 171.347L791.982 169.693C787.86 166.896 784.505 163.213 781.917 158.628L780.175 159.612ZM790.865 171.352C795.392 174.37 800.876 175.852 807.266 175.852V173.852C801.192 173.852 796.112 172.446 791.975 169.688L790.865 171.352ZM904.82 207H903.82V208H904.82V207ZM904.82 47.4V46.4H903.82V47.4H904.82ZM1016.31 54.582L1015.8 55.4395L1015.8 55.4431L1016.31 54.582ZM1033.41 73.506L1032.49 73.9031L1032.5 73.9105L1033.41 73.506ZM1035.35 117.51L1036.29 117.847L1036.29 117.843L1035.35 117.51ZM1025.66 134.496L1024.89 133.86L1024.89 133.862L1025.66 134.496ZM1010.38 146.124L1009.98 145.21L1009.03 145.63L1009.48 146.562L1010.38 146.124ZM1040.02 207V208H1041.62L1040.92 206.562L1040.02 207ZM999.668 207L998.779 207.459L999.059 208H999.668V207ZM971.168 151.824L972.056 151.365L971.777 150.824H971.168V151.824ZM940.844 151.824V150.824H939.844V151.824H940.844ZM940.844 207V208H941.844V207H940.844ZM940.844 117.852H939.844V118.852H940.844V117.852ZM994.424 115.344L994.99 116.168L994.996 116.164L994.424 115.344ZM999.668 108.504L998.733 108.15L998.728 108.161L998.724 108.173L999.668 108.504ZM999.782 90.72L1000.72 90.3803L1000.72 90.3803L999.782 90.72ZM994.538 83.994L993.954 84.806L993.96 84.8103L993.966 84.8144L994.538 83.994ZM940.844 81.372V80.372H939.844V81.372H940.844ZM905.82 207V47.4H903.82V207H905.82ZM904.82 48.4H983.936V46.4H904.82V48.4ZM983.936 48.4C997.437 48.4 1008.03 50.7782 1015.8 55.4395L1016.83 53.7245C1008.64 48.8098 997.643 46.4 983.936 46.4V48.4ZM1015.8 55.4431C1023.62 60.0562 1029.16 66.2082 1032.49 73.9031L1034.33 73.1089C1030.82 64.9958 1024.97 58.5317 1016.82 53.7209L1015.8 55.4431ZM1032.5 73.9105C1035.93 81.677 1037.66 90.1638 1037.66 99.384H1039.66C1039.66 89.9082 1037.88 81.143 1034.33 73.1015L1032.5 73.9105ZM1037.66 99.384C1037.66 105.109 1036.58 111.038 1034.41 117.177L1036.29 117.843C1038.53 111.518 1039.66 105.363 1039.66 99.384H1037.66ZM1034.41 117.173C1032.24 123.218 1029.07 128.779 1024.89 133.86L1026.43 135.132C1030.76 129.877 1034.05 124.114 1036.29 117.847L1034.41 117.173ZM1024.89 133.862C1020.81 138.833 1015.84 142.613 1009.98 145.21L1010.79 147.038C1016.94 144.315 1022.15 140.343 1026.43 135.13L1024.89 133.862ZM1009.48 146.562L1039.12 207.438L1040.92 206.562L1011.28 145.686L1009.48 146.562ZM1040.02 206H999.668V208H1040.02V206ZM1000.56 206.541L972.056 151.365L970.279 152.283L998.779 207.459L1000.56 206.541ZM971.168 150.824H940.844V152.824H971.168V150.824ZM939.844 151.824V207H941.844V151.824H939.844ZM940.844 206H904.82V208H940.844V206ZM940.844 118.852H984.392V116.852H940.844V118.852ZM984.392 118.852C988.765 118.852 992.333 117.995 994.99 116.168L993.857 114.52C991.651 116.037 988.531 116.852 984.392 116.852V118.852ZM994.996 116.164C997.671 114.3 999.552 111.851 1000.61 108.835L998.724 108.173C997.808 110.781 996.193 112.892 993.852 114.524L994.996 116.164ZM1000.6 108.858C1001.71 105.923 1002.26 102.762 1002.26 99.384H1000.26C1000.26 102.542 999.75 105.461 998.733 108.15L1000.6 108.858ZM1002.26 99.384C1002.26 96.2335 1001.75 93.2301 1000.72 90.3803L998.841 91.0596C999.788 93.6819 1000.26 96.4545 1000.26 99.384H1002.26ZM1000.72 90.3803C999.66 87.4396 997.778 85.0335 995.11 83.1736L993.966 84.8144C996.313 86.4505 997.927 88.5284 998.841 91.0596L1000.72 90.3803ZM995.121 83.182C992.459 81.2682 988.844 80.372 984.392 80.372V82.372C988.604 82.372 991.753 83.2238 993.954 84.806L995.121 83.182ZM984.392 80.372H940.844V82.372H984.392V80.372ZM939.844 81.372V117.852H941.844V81.372H939.844ZM1065.8 207H1064.8V208H1065.8V207ZM1065.8 47.4V46.4H1064.8V47.4H1065.8ZM1101.82 47.4H1102.82V46.4H1101.82V47.4ZM1101.82 207V208H1102.82V207H1101.82ZM1066.8 207V47.4H1064.8V207H1066.8ZM1065.8 48.4H1101.82V46.4H1065.8V48.4ZM1100.82 47.4V207H1102.82V47.4H1100.82ZM1101.82 206H1065.8V208H1101.82V206ZM1134.82 207H1133.82V208H1134.82V207ZM1134.82 47.4V46.4H1133.82V47.4H1134.82ZM1251.33 47.4H1252.33V46.4H1251.33V47.4ZM1251.33 81.6V82.6H1252.33V81.6H1251.33ZM1170.85 81.6V80.6H1169.85V81.6H1170.85ZM1170.85 107.592H1169.85V108.592H1170.85V107.592ZM1215.08 107.592H1216.08V106.592H1215.08V107.592ZM1215.08 141.792V142.792H1216.08V141.792H1215.08ZM1170.85 141.792V140.792H1169.85V141.792H1170.85ZM1170.85 172.572H1169.85V173.572H1170.85V172.572ZM1255.89 172.572H1256.89V171.572H1255.89V172.572ZM1255.89 207V208H1256.89V207H1255.89ZM1135.82 207V47.4H1133.82V207H1135.82ZM1134.82 48.4H1251.33V46.4H1134.82V48.4ZM1250.33 47.4V81.6H1252.33V47.4H1250.33ZM1251.33 80.6H1170.85V82.6H1251.33V80.6ZM1169.85 81.6V107.592H1171.85V81.6H1169.85ZM1170.85 108.592H1215.08V106.592H1170.85V108.592ZM1214.08 107.592V141.792H1216.08V107.592H1214.08ZM1215.08 140.792H1170.85V142.792H1215.08V140.792ZM1169.85 141.792V172.572H1171.85V141.792H1169.85ZM1170.85 173.572H1255.89V171.572H1170.85V173.572ZM1254.89 172.572V207H1256.89V172.572H1254.89ZM1255.89 206H1134.82V208H1255.89V206ZM1305.79 204.036L1305.38 204.949L1305.39 204.95L1305.79 204.036ZM1283.68 187.734L1282.92 188.387L1282.93 188.395L1283.68 187.734ZM1269.54 162.084L1269.19 161.148L1268.29 161.485L1268.59 162.396L1269.54 162.084ZM1301.69 150L1302.59 149.571L1302.2 148.74L1301.34 149.064L1301.69 150ZM1315.82 168.582L1315.18 169.351L1315.19 169.356L1315.82 168.582ZM1352.19 171.888L1352.71 172.743L1352.71 172.74L1352.19 171.888ZM1354.93 151.938L1354.25 152.679L1354.26 152.684L1354.27 152.689L1354.93 151.938ZM1344.55 146.124L1344.18 147.054L1344.19 147.057L1344.2 147.061L1344.55 146.124ZM1329.05 140.652L1328.73 141.602L1328.74 141.604L1329.05 140.652ZM1310.69 134.154L1311.05 133.219L1311.05 133.219L1310.69 134.154ZM1293.48 125.262L1292.9 126.079L1292.91 126.084L1292.92 126.088L1293.48 125.262ZM1280.94 111.354L1281.81 110.86L1281.81 110.86L1280.94 111.354ZM1282.76 67.464L1281.92 66.9265L1281.92 66.9265L1282.76 67.464ZM1301.92 50.934L1302.36 51.8317L1302.36 51.83L1301.92 50.934ZM1358.8 50.136L1358.37 51.0392L1358.38 51.0426L1358.8 50.136ZM1377.84 64.728L1377.06 65.3597L1377.07 65.3654L1377.84 64.728ZM1388.56 85.476L1388.87 86.426L1389.77 86.1309L1389.52 85.2177L1388.56 85.476ZM1356.64 95.964L1355.73 96.3831L1356.1 97.1922L1356.95 96.914L1356.64 95.964ZM1347.29 83.652L1346.63 84.4092L1346.64 84.416L1346.65 84.4226L1347.29 83.652ZM1316.74 81.828L1317.28 82.6692L1317.28 82.666L1316.74 81.828ZM1315.25 97.332L1314.62 98.1024L1314.62 98.109L1314.63 98.1155L1315.25 97.332ZM1324.49 102.234L1324.13 103.167L1324.13 103.167L1324.49 102.234ZM1338.4 107.136L1338.08 108.086L1338.09 108.087L1338.4 107.136ZM1358.46 114.432L1358.09 115.36L1358.09 115.361L1358.46 114.432ZM1376.59 124.236L1376 125.048L1376.01 125.052L1376.59 124.236ZM1389.58 138.828L1388.7 139.307L1388.71 139.316L1389.58 138.828ZM1386.39 187.164L1385.58 186.573L1385.58 186.575L1386.39 187.164ZM1364.73 203.922L1364.34 203.002L1364.34 203.003L1364.73 203.922ZM1334.29 208.736C1324 208.736 1314.64 206.859 1306.2 203.122L1305.39 204.95C1314.12 208.813 1323.76 210.736 1334.29 210.736V208.736ZM1306.2 203.123C1297.82 199.382 1290.56 194.034 1284.43 187.073L1282.93 188.395C1289.25 195.57 1296.74 201.09 1305.38 204.949L1306.2 203.123ZM1284.43 187.081C1278.37 180.048 1273.72 171.617 1270.49 161.772L1268.59 162.396C1271.89 172.463 1276.67 181.132 1282.92 188.387L1284.43 187.081ZM1269.89 163.02L1302.04 150.936L1301.34 149.064L1269.19 161.148L1269.89 163.02ZM1300.78 150.429C1304.41 158.072 1309.21 164.386 1315.18 169.351L1316.46 167.813C1310.73 163.05 1306.11 156.976 1302.59 149.571L1300.78 150.429ZM1315.19 169.356C1321.21 174.279 1327.89 176.764 1335.2 176.764V174.764C1328.38 174.764 1322.14 172.461 1316.46 167.808L1315.19 169.356ZM1335.2 176.764C1342.38 176.764 1348.24 175.454 1352.71 172.743L1351.67 171.033C1347.62 173.49 1342.16 174.764 1335.2 174.764V176.764ZM1352.71 172.74C1357.34 169.898 1359.69 165.699 1359.69 160.26H1357.69C1357.69 165.005 1355.7 168.558 1351.67 171.036L1352.71 172.74ZM1359.69 160.26C1359.69 156.629 1358.31 153.581 1355.59 151.187L1354.27 152.689C1356.56 154.703 1357.69 157.203 1357.69 160.26H1359.69ZM1355.6 151.197C1353.04 148.878 1349.45 146.885 1344.9 145.187L1344.2 147.061C1348.62 148.707 1351.95 150.59 1354.25 152.679L1355.6 151.197ZM1344.92 145.194C1340.49 143.436 1335.3 141.605 1329.35 139.7L1328.74 141.604C1334.66 143.499 1339.8 145.316 1344.18 147.054L1344.92 145.194ZM1329.36 139.702C1323.37 137.731 1317.27 135.57 1311.05 133.219L1310.34 135.089C1316.58 137.45 1322.72 139.621 1328.74 141.602L1329.36 139.702ZM1311.05 133.219C1304.89 130.889 1299.22 127.961 1294.04 124.436L1292.92 126.088C1298.23 129.707 1304.04 132.707 1310.34 135.089L1311.05 133.219ZM1294.06 124.445C1289.01 120.884 1284.93 116.359 1281.81 110.86L1280.07 111.848C1283.33 117.597 1287.61 122.344 1292.9 126.079L1294.06 124.445ZM1281.81 110.86C1278.72 105.426 1277.15 98.5782 1277.15 90.264H1275.15C1275.15 98.8218 1276.77 106.034 1280.07 111.848L1281.81 110.86ZM1277.15 90.264C1277.15 82.1684 1279.3 74.7552 1283.61 68.0015L1281.92 66.9265C1277.41 74.0048 1275.15 81.7916 1275.15 90.264H1277.15ZM1283.61 68.0015C1287.9 61.2603 1294.14 55.866 1302.36 51.8317L1301.47 50.0363C1292.97 54.21 1286.44 59.8357 1281.92 66.9265L1283.61 68.0015ZM1302.36 51.83C1310.63 47.7342 1320.65 45.664 1332.47 45.664V43.664C1320.42 43.664 1310.08 45.7738 1301.47 50.038L1302.36 51.83ZM1332.47 45.664C1342.22 45.664 1350.85 47.4645 1358.37 51.0392L1359.23 49.2328C1351.4 45.5115 1342.47 43.664 1332.47 43.664V45.664ZM1358.38 51.0426C1365.93 54.5552 1372.15 59.3285 1377.06 65.3597L1378.61 64.0963C1373.5 57.8155 1367.03 52.8608 1359.22 49.2294L1358.38 51.0426ZM1377.07 65.3654C1382.07 71.4112 1385.57 78.198 1387.59 85.7342L1389.52 85.2177C1387.43 77.402 1383.79 70.3568 1378.61 64.0906L1377.07 65.3654ZM1388.24 84.526L1356.32 95.014L1356.95 96.914L1388.87 86.426L1388.24 84.526ZM1357.54 95.5449C1355.2 90.4774 1352 86.2506 1347.92 82.8814L1346.65 84.4226C1350.48 87.5894 1353.51 91.5706 1355.73 96.3831L1357.54 95.5449ZM1347.94 82.8948C1343.82 79.3405 1338.01 77.636 1330.64 77.636V79.636C1337.72 79.636 1343 81.2755 1346.63 84.4092L1347.94 82.8948ZM1330.64 77.636C1324.54 77.636 1319.69 78.7136 1316.19 80.99L1317.28 82.666C1320.32 80.6864 1324.74 79.636 1330.64 79.636V77.636ZM1316.19 80.9868C1312.7 83.236 1310.95 86.6048 1310.95 90.948H1312.95C1312.95 87.2352 1314.39 84.524 1317.28 82.6692L1316.19 80.9868ZM1310.95 90.948C1310.95 93.7318 1312.23 96.1256 1314.62 98.1024L1315.89 96.5616C1313.87 94.8903 1312.95 93.0282 1312.95 90.948H1310.95ZM1314.63 98.1155C1316.94 99.9497 1320.12 101.627 1324.13 103.167L1324.85 101.301C1320.95 99.8006 1317.97 98.2103 1315.88 96.5485L1314.63 98.1155ZM1324.13 103.167C1328.1 104.695 1332.75 106.334 1338.08 108.086L1338.71 106.186C1333.4 104.442 1328.78 102.813 1324.85 101.301L1324.13 103.167ZM1338.09 108.087C1344.83 110.284 1351.5 112.708 1358.09 115.36L1358.83 113.504C1352.2 110.836 1345.49 108.396 1338.71 106.185L1338.09 108.087ZM1358.09 115.361C1364.71 117.994 1370.68 121.224 1376 125.048L1377.17 123.424C1371.7 119.496 1365.59 116.19 1358.83 113.503L1358.09 115.361ZM1376.01 125.052C1381.36 128.84 1385.59 133.589 1388.7 139.307L1390.46 138.349C1387.19 132.363 1382.76 127.384 1377.16 123.42L1376.01 125.052ZM1388.71 139.316C1391.87 144.982 1393.48 152.024 1393.48 160.488H1395.48C1395.48 151.776 1393.83 144.378 1390.45 138.34L1388.71 139.316ZM1393.48 160.488C1393.48 170.719 1390.84 179.396 1385.58 186.573L1387.2 187.755C1392.74 180.188 1395.48 171.081 1395.48 160.488H1393.48ZM1385.58 186.575C1380.38 193.711 1373.31 199.189 1364.34 203.002L1365.12 204.842C1374.39 200.903 1381.76 195.209 1387.2 187.753L1385.58 186.575ZM1364.34 203.003C1355.43 206.818 1345.42 208.736 1334.29 208.736V210.736C1345.66 210.736 1355.94 208.778 1365.12 204.841L1364.34 203.003Z" fill="#A5B9BD"/>
</g>
<path d="M101.056 81.344C103.168 81.344 104.896 81.664 106.24 82.304C107.616 82.912 108.832 83.632 109.888 84.464C110.528 84.944 111.008 85.008 111.328 84.656C111.68 84.272 111.92 83.392 112.048 82.016H113.152C113.088 83.264 113.04 84.784 113.008 86.576C112.976 88.336 112.96 90.688 112.96 93.632H111.856C111.696 92.16 111.488 90.912 111.232 89.888C110.976 88.832 110.624 87.904 110.176 87.104C109.728 86.304 109.088 85.584 108.256 84.944C107.456 84.144 106.528 83.552 105.472 83.168C104.416 82.784 103.312 82.592 102.16 82.592C100.432 82.592 98.96 83.056 97.744 83.984C96.528 84.88 95.536 86.112 94.768 87.68C94.032 89.248 93.488 91.024 93.136 93.008C92.784 94.96 92.608 96.992 92.608 99.104C92.608 101.248 92.784 103.312 93.136 105.296C93.52 107.248 94.096 108.992 94.864 110.528C95.664 112.064 96.688 113.28 97.936 114.176C99.184 115.072 100.656 115.52 102.352 115.52C103.408 115.52 104.464 115.328 105.52 114.944C106.608 114.528 107.536 113.936 108.304 113.168C109.552 112.208 110.4 111.024 110.848 109.616C111.296 108.176 111.632 106.272 111.856 103.904H112.96C112.96 106.944 112.976 109.408 113.008 111.296C113.04 113.152 113.088 114.72 113.152 116H112.048C111.92 114.624 111.696 113.76 111.376 113.408C111.088 113.056 110.592 113.104 109.888 113.552C108.704 114.384 107.44 115.12 106.096 115.76C104.784 116.368 103.088 116.672 101.008 116.672C97.616 116.672 94.64 115.984 92.08 114.608C89.552 113.232 87.584 111.248 86.176 108.656C84.768 106.064 84.064 102.944 84.064 99.296C84.064 95.712 84.784 92.576 86.224 89.888C87.696 87.2 89.696 85.104 92.224 83.6C94.784 82.096 97.728 81.344 101.056 81.344ZM123.62 116.336C122.18 116.336 120.98 116.064 120.02 115.52C119.06 114.976 118.356 114.256 117.908 113.36C117.46 112.432 117.236 111.424 117.236 110.336C117.236 108.96 117.54 107.84 118.148 106.976C118.788 106.112 119.604 105.408 120.596 104.864C121.588 104.32 122.628 103.872 123.716 103.52C124.836 103.168 125.892 102.832 126.884 102.512C127.908 102.16 128.724 101.76 129.332 101.312C129.972 100.832 130.292 100.224 130.292 99.488V95.744C130.292 94.912 130.148 94.176 129.86 93.536C129.604 92.864 129.188 92.352 128.612 92C128.068 91.648 127.348 91.472 126.452 91.472C125.812 91.472 125.172 91.568 124.532 91.76C123.892 91.92 123.364 92.208 122.948 92.624C123.844 92.944 124.532 93.44 125.012 94.112C125.524 94.752 125.78 95.488 125.78 96.32C125.78 97.408 125.396 98.272 124.628 98.912C123.892 99.552 123.012 99.872 121.988 99.872C120.836 99.872 119.956 99.52 119.348 98.816C118.772 98.08 118.484 97.2 118.484 96.176C118.484 95.248 118.708 94.48 119.156 93.872C119.636 93.264 120.292 92.688 121.124 92.144C122.02 91.632 123.092 91.232 124.34 90.944C125.62 90.656 126.996 90.512 128.468 90.512C129.94 90.512 131.268 90.672 132.452 90.992C133.636 91.28 134.628 91.824 135.428 92.624C136.164 93.36 136.644 94.272 136.868 95.36C137.092 96.416 137.204 97.76 137.204 99.392V112.448C137.204 113.248 137.284 113.808 137.444 114.128C137.604 114.416 137.876 114.56 138.26 114.56C138.548 114.56 138.82 114.48 139.076 114.32C139.364 114.16 139.668 113.968 139.988 113.744L140.468 114.56C139.796 115.136 139.012 115.584 138.116 115.904C137.252 116.192 136.276 116.336 135.188 116.336C134.004 116.336 133.06 116.176 132.356 115.856C131.652 115.504 131.14 115.04 130.82 114.464C130.532 113.888 130.388 113.216 130.388 112.448C129.62 113.664 128.692 114.624 127.604 115.328C126.516 116 125.188 116.336 123.62 116.336ZM127.028 113.264C127.668 113.264 128.244 113.12 128.756 112.832C129.3 112.512 129.812 112 130.292 111.296V101.456C130.004 101.936 129.604 102.368 129.092 102.752C128.58 103.136 128.036 103.536 127.46 103.952C126.884 104.336 126.324 104.768 125.78 105.248C125.268 105.728 124.852 106.32 124.532 107.024C124.212 107.728 124.052 108.576 124.052 109.568C124.052 110.816 124.324 111.744 124.868 112.352C125.412 112.96 126.132 113.264 127.028 113.264ZM151.584 83.312V91.184H157.248V92.144H151.584V111.536C151.584 112.496 151.76 113.184 152.112 113.6C152.464 113.984 152.992 114.176 153.696 114.176C154.272 114.176 154.848 113.968 155.424 113.552C156 113.104 156.512 112.352 156.96 111.296L157.776 111.728C157.264 113.168 156.48 114.352 155.424 115.28C154.4 116.208 152.992 116.672 151.2 116.672C150.144 116.672 149.216 116.528 148.416 116.24C147.616 115.984 146.944 115.584 146.4 115.04C145.696 114.336 145.232 113.472 145.008 112.448C144.784 111.392 144.672 110.032 144.672 108.368V92.144H140.639V91.184H144.672V84.848C146.016 84.848 147.248 84.736 148.368 84.512C149.52 84.256 150.592 83.856 151.584 83.312ZM170.911 90.512C173.727 90.512 175.935 91.344 177.535 93.008C179.135 94.672 179.935 97.392 179.935 101.168H164.143L164.047 100.256H173.887C173.919 98.688 173.823 97.248 173.599 95.936C173.375 94.592 173.023 93.52 172.543 92.72C172.063 91.92 171.423 91.52 170.623 91.52C169.503 91.52 168.543 92.224 167.743 93.632C166.975 95.04 166.511 97.376 166.351 100.64L166.495 100.928C166.463 101.312 166.431 101.712 166.399 102.128C166.399 102.544 166.399 102.976 166.399 103.424C166.399 105.632 166.703 107.424 167.311 108.8C167.951 110.176 168.751 111.184 169.711 111.824C170.671 112.432 171.647 112.736 172.639 112.736C173.311 112.736 173.999 112.64 174.703 112.448C175.439 112.224 176.175 111.84 176.911 111.296C177.647 110.72 178.335 109.92 178.975 108.896L179.839 109.184C179.455 110.4 178.847 111.584 178.015 112.736C177.183 113.888 176.127 114.832 174.847 115.568C173.567 116.304 172.031 116.672 170.239 116.672C168.063 116.672 166.143 116.208 164.479 115.28C162.815 114.352 161.503 112.944 160.543 111.056C159.615 109.168 159.151 106.768 159.151 103.856C159.151 100.88 159.647 98.4 160.639 96.416C161.663 94.432 163.055 92.96 164.815 92C166.607 91.008 168.639 90.512 170.911 90.512ZM192.027 125.024C190.043 125.024 188.267 124.848 186.699 124.496C185.163 124.176 183.947 123.664 183.051 122.96C182.187 122.288 181.755 121.456 181.755 120.464C181.755 119.472 182.203 118.576 183.099 117.776C183.995 117.008 185.323 116.4 187.083 115.952L187.515 116.72C186.907 117.2 186.459 117.712 186.171 118.256C185.915 118.832 185.787 119.424 185.787 120.032C185.787 121.376 186.395 122.4 187.611 123.104C188.859 123.84 190.539 124.208 192.651 124.208C194.091 124.208 195.371 124.016 196.491 123.632C197.643 123.248 198.539 122.672 199.179 121.904C199.851 121.136 200.187 120.192 200.187 119.072C200.187 118.112 199.835 117.296 199.131 116.624C198.427 115.984 197.019 115.664 194.907 115.664H191.931C190.619 115.664 189.467 115.52 188.475 115.232C187.515 114.944 186.763 114.496 186.219 113.888C185.675 113.248 185.403 112.448 185.403 111.488C185.403 110.144 185.931 108.96 186.987 107.936C188.043 106.912 189.611 105.952 191.691 105.056L192.171 105.44C191.563 105.824 190.987 106.24 190.443 106.688C189.931 107.104 189.675 107.648 189.675 108.32C189.675 109.344 190.315 109.856 191.595 109.856H196.827C198.587 109.856 200.155 110.064 201.531 110.48C202.939 110.896 204.043 111.584 204.843 112.544C205.675 113.472 206.091 114.688 206.091 116.192C206.091 117.76 205.579 119.216 204.555 120.56C203.563 121.904 202.027 122.976 199.947 123.776C197.867 124.608 195.227 125.024 192.027 125.024ZM192.507 105.776C190.683 105.776 189.051 105.504 187.611 104.96C186.171 104.416 185.035 103.584 184.203 102.464C183.371 101.344 182.955 99.904 182.955 98.144C182.955 96.384 183.371 94.944 184.203 93.824C185.035 92.672 186.171 91.84 187.611 91.328C189.051 90.784 190.683 90.512 192.507 90.512C194.331 90.512 195.963 90.784 197.403 91.328C198.843 91.84 199.979 92.672 200.811 93.824C201.643 94.944 202.059 96.384 202.059 98.144C202.059 99.904 201.643 101.344 200.811 102.464C199.979 103.584 198.843 104.416 197.403 104.96C195.963 105.504 194.331 105.776 192.507 105.776ZM192.507 104.912C193.371 104.912 194.043 104.432 194.523 103.472C195.003 102.48 195.243 100.704 195.243 98.144C195.243 95.584 195.003 93.824 194.523 92.864C194.043 91.872 193.371 91.376 192.507 91.376C191.675 91.376 191.003 91.872 190.491 92.864C190.011 93.824 189.771 95.584 189.771 98.144C189.771 100.704 190.011 102.48 190.491 103.472C191.003 104.432 191.675 104.912 192.507 104.912ZM199.995 94.64L199.035 94.304C199.515 93.056 200.283 92.016 201.339 91.184C202.427 90.352 203.595 89.936 204.843 89.936C205.867 89.936 206.635 90.224 207.147 90.8C207.691 91.344 207.963 92.064 207.963 92.96C207.963 93.92 207.707 94.64 207.195 95.12C206.683 95.568 206.107 95.792 205.467 95.792C204.923 95.792 204.411 95.6 203.931 95.216C203.483 94.832 203.227 94.256 203.163 93.488C203.099 92.688 203.371 91.664 203.979 90.416L204.315 90.704C203.099 91.152 202.187 91.68 201.579 92.288C200.971 92.864 200.443 93.648 199.995 94.64ZM220.88 90.512C223.216 90.512 225.264 90.944 227.024 91.808C228.784 92.672 230.16 94.064 231.152 95.984C232.144 97.904 232.64 100.448 232.64 103.616C232.64 106.784 232.144 109.328 231.152 111.248C230.16 113.136 228.784 114.512 227.024 115.376C225.264 116.24 223.216 116.672 220.88 116.672C218.608 116.672 216.576 116.24 214.784 115.376C213.024 114.512 211.632 113.136 210.608 111.248C209.616 109.328 209.12 106.784 209.12 103.616C209.12 100.448 209.616 97.904 210.608 95.984C211.632 94.064 213.024 92.672 214.784 91.808C216.576 90.944 218.608 90.512 220.88 90.512ZM220.88 91.472C219.6 91.472 218.528 92.432 217.664 94.352C216.8 96.24 216.368 99.328 216.368 103.616C216.368 107.904 216.8 110.992 217.664 112.88C218.528 114.768 219.6 115.712 220.88 115.712C222.192 115.712 223.264 114.768 224.096 112.88C224.96 110.992 225.392 107.904 225.392 103.616C225.392 99.328 224.96 96.24 224.096 94.352C223.264 92.432 222.192 91.472 220.88 91.472ZM252.148 90.512C253.172 90.512 254.004 90.736 254.644 91.184C255.284 91.6 255.748 92.144 256.036 92.816C256.356 93.488 256.516 94.192 256.516 94.928C256.516 96.112 256.164 97.088 255.46 97.856C254.788 98.592 253.892 98.96 252.772 98.96C251.652 98.96 250.772 98.688 250.132 98.144C249.524 97.568 249.22 96.816 249.22 95.888C249.22 94.992 249.412 94.256 249.796 93.68C250.212 93.072 250.724 92.56 251.332 92.144C250.884 92.016 250.436 92.032 249.988 92.192C249.38 92.288 248.804 92.544 248.26 92.96C247.716 93.344 247.252 93.84 246.868 94.448C246.484 95.024 246.18 95.664 245.956 96.368C245.732 97.04 245.62 97.696 245.62 98.336V111.056C245.62 112.592 245.988 113.632 246.724 114.176C247.492 114.72 248.628 114.992 250.132 114.992V116C249.396 115.968 248.324 115.936 246.916 115.904C245.508 115.84 244.036 115.808 242.5 115.808C241.22 115.808 239.924 115.84 238.612 115.904C237.3 115.936 236.308 115.968 235.636 116V114.992C236.756 114.992 237.54 114.752 237.988 114.272C238.468 113.792 238.708 112.88 238.708 111.536V96.416C238.708 94.976 238.484 93.92 238.036 93.248C237.62 92.544 236.82 92.192 235.636 92.192V91.184C236.66 91.28 237.652 91.328 238.612 91.328C239.956 91.328 241.204 91.28 242.356 91.184C243.54 91.056 244.628 90.88 245.62 90.656V95.12C246.004 94.256 246.516 93.472 247.156 92.768C247.796 92.064 248.532 91.52 249.364 91.136C250.196 90.72 251.124 90.512 252.148 90.512ZM264.283 78.8C265.627 78.8 266.683 79.136 267.451 79.808C268.251 80.448 268.651 81.344 268.651 82.496C268.651 83.648 268.251 84.56 267.451 85.232C266.683 85.872 265.627 86.192 264.283 86.192C262.939 86.192 261.867 85.872 261.067 85.232C260.299 84.56 259.915 83.648 259.915 82.496C259.915 81.344 260.299 80.448 261.067 79.808C261.867 79.136 262.939 78.8 264.283 78.8ZM268.027 90.656V111.536C268.027 112.88 268.251 113.792 268.699 114.272C269.179 114.752 269.979 114.992 271.099 114.992V116C270.523 115.968 269.627 115.936 268.411 115.904C267.195 115.84 265.963 115.808 264.715 115.808C263.467 115.808 262.203 115.84 260.923 115.904C259.643 115.936 258.683 115.968 258.043 116V114.992C259.163 114.992 259.947 114.752 260.395 114.272C260.875 113.792 261.115 112.88 261.115 111.536V96.416C261.115 94.976 260.891 93.92 260.443 93.248C260.027 92.544 259.227 92.192 258.043 92.192V91.184C259.067 91.28 260.059 91.328 261.019 91.328C262.363 91.328 263.611 91.28 264.763 91.184C265.947 91.056 267.035 90.88 268.027 90.656ZM285.567 90.512C288.383 90.512 290.591 91.344 292.191 93.008C293.791 94.672 294.591 97.392 294.591 101.168H278.799L278.703 100.256H288.543C288.575 98.688 288.479 97.248 288.255 95.936C288.031 94.592 287.679 93.52 287.199 92.72C286.719 91.92 286.079 91.52 285.279 91.52C284.159 91.52 283.199 92.224 282.399 93.632C281.631 95.04 281.167 97.376 281.007 100.64L281.151 100.928C281.119 101.312 281.087 101.712 281.055 102.128C281.055 102.544 281.055 102.976 281.055 103.424C281.055 105.632 281.359 107.424 281.967 108.8C282.607 110.176 283.407 111.184 284.367 111.824C285.327 112.432 286.303 112.736 287.295 112.736C287.967 112.736 288.655 112.64 289.359 112.448C290.095 112.224 290.831 111.84 291.567 111.296C292.303 110.72 292.991 109.92 293.631 108.896L294.495 109.184C294.111 110.4 293.503 111.584 292.671 112.736C291.839 113.888 290.783 114.832 289.503 115.568C288.223 116.304 286.687 116.672 284.895 116.672C282.719 116.672 280.799 116.208 279.135 115.28C277.471 114.352 276.159 112.944 275.199 111.056C274.271 109.168 273.807 106.768 273.807 103.856C273.807 100.88 274.303 98.4 275.295 96.416C276.319 94.432 277.711 92.96 279.471 92C281.263 91.008 283.295 90.512 285.567 90.512ZM306.875 90.512C308.219 90.512 309.387 90.688 310.379 91.04C311.403 91.36 312.139 91.68 312.587 92C313.675 92.736 314.347 92.256 314.603 90.56H315.611C315.547 91.456 315.499 92.56 315.467 93.872C315.435 95.152 315.419 96.864 315.419 99.008H314.411C314.251 97.824 313.947 96.656 313.499 95.504C313.051 94.352 312.395 93.408 311.531 92.672C310.699 91.936 309.611 91.568 308.267 91.568C307.339 91.568 306.555 91.84 305.915 92.384C305.275 92.896 304.955 93.648 304.955 94.64C304.955 95.6 305.243 96.448 305.819 97.184C306.395 97.888 307.131 98.576 308.027 99.248C308.955 99.888 309.915 100.576 310.907 101.312C311.963 102.112 312.923 102.912 313.787 103.712C314.651 104.48 315.339 105.328 315.851 106.256C316.363 107.184 316.619 108.288 316.619 109.568C316.619 111.008 316.203 112.272 315.371 113.36C314.539 114.416 313.435 115.232 312.059 115.808C310.715 116.384 309.211 116.672 307.547 116.672C306.587 116.672 305.723 116.576 304.955 116.384C304.219 116.192 303.579 115.952 303.035 115.664C302.619 115.472 302.219 115.296 301.835 115.136C301.483 114.944 301.147 114.784 300.827 114.656C300.507 114.56 300.219 114.672 299.963 114.992C299.739 115.312 299.563 115.76 299.435 116.336H298.427C298.491 115.312 298.539 114.064 298.571 112.592C298.603 111.12 298.619 109.168 298.619 106.736H299.627C299.819 108.464 300.171 110 300.683 111.344C301.195 112.656 301.883 113.696 302.747 114.464C303.643 115.2 304.763 115.568 306.107 115.568C306.651 115.568 307.179 115.456 307.691 115.232C308.203 115.008 308.619 114.64 308.939 114.128C309.291 113.616 309.467 112.96 309.467 112.16C309.467 110.752 309.003 109.584 308.075 108.656C307.179 107.728 306.027 106.72 304.619 105.632C303.595 104.8 302.619 103.984 301.691 103.184C300.795 102.352 300.059 101.456 299.483 100.496C298.907 99.504 298.619 98.384 298.619 97.136C298.619 95.696 299.003 94.48 299.771 93.488C300.539 92.496 301.547 91.76 302.795 91.28C304.075 90.768 305.435 90.512 306.875 90.512Z" fill="black"/>
<defs>
<filter id="filter0_b_1406_667" x="6.94385" y="40.6639" width="1391.54" height="173.072" filterUnits="userSpaceOnUse" color-interpolation-filters="sRGB">
<feFlood flood-opacity="0" result="BackgroundImageFix"/>
<feGaussianBlur in="BackgroundImage" stdDeviation="2"/>
<feComposite in2="SourceAlpha" operator="in" result="effect1_backgroundBlur_1406_667"/>
<feBlend mode="normal" in="SourceGraphic" in2="effect1_backgroundBlur_1406_667" result="shape"/>
</filter>
</defs>
</svg>
